<svg xmlns="http://www.w3.org/2000/svg"
     width="24"
     height="24"
     viewBox="0 0 24 24"
     fill="none"
     stroke="currentColor"
     stroke-width="1.5"
     stroke-linecap="round"
     stroke-linejoin="round">

  <path stroke="none" d="M0 0h24v24H0z" fill="none"/>

  <!-- Clipboard -->
  <path d="M9 5h-2a2 2 0 0 0 -2 2v12a2 2 0 0 0 2 2h10a2 2 0 0 0 2 -2v-12a2 2 0 0 0 -2 -2h-2"/>
  <path d="M9 5a2 2 0 0 1 2 -2h2a2 2 0 0 1 2 2a2 2 0 0 1 -2 2h-2a2 2 0 0 1 -2 -2"/>

  <!-- OUT -->
  <path d="M12 17.5v-7"/>
  <path d="M9.5 13l2.5 -2.5l2.5 2.5"/>

</svg>